<svg width="34" height="6" viewBox="0 0 34 6" fill="none" xmlns="http://www.w3.org/2000/svg">
<path d="M12.1905 0.048036C12.8365 0.048036 13.1337 0.159119 13.3167 0.381286C13.5794 0.714536 13.7296 1.38104 13.2995 3.01576C12.8693 4.65049 12.3876 5.29897 11.9434 5.65024C11.6462 5.8724 11.2818 5.98349 10.6358 5.98349H8.57124C7.92527 5.98349 7.61246 5.8724 7.4451 5.65024C7.18233 5.31699 7.03375 4.65049 7.47951 3.01576C7.90963 1.37953 8.40545 0.729547 8.85277 0.381286C9.14838 0.159119 9.50969 0.048036 10.1572 0.048036H12.1905ZM9.18123 4.5394C9.21408 4.58744 9.29697 4.60245 9.5613 4.60245H10.3559C10.6202 4.60245 10.7187 4.58744 10.786 4.5394C10.8673 4.47636 11.0175 4.31724 11.3475 3.01576C11.6947 1.71429 11.629 1.55517 11.579 1.49212C11.5461 1.44408 11.4632 1.42907 11.1989 1.42907H10.4215C10.1557 1.42907 10.0571 1.44408 9.99142 1.49212C9.90853 1.55517 9.75994 1.71429 9.42835 3.01576C9.06549 4.33225 9.13118 4.47636 9.18123 4.5394V4.5394ZM17.2018 4.06355C17.1361 3.98399 17.0689 3.95246 16.6732 3.95246H15.8958C15.8129 3.95246 15.73 4.01551 15.7128 4.09507L15.2671 5.83938C15.2514 5.91894 15.167 5.98199 15.0856 5.98199H13.4809C13.398 5.98199 13.3479 5.91894 13.3651 5.83938L14.8354 0.189142C14.8526 0.109582 14.9355 0.0465349 15.0184 0.0465349H18.7878C19.4009 0.0465349 19.731 0.126095 19.914 0.34676C20.1126 0.616963 20.1783 0.902177 19.964 1.7278C19.6825 2.83863 19.2523 3.15687 18.5094 3.29947V3.31449C19.0881 3.45859 19.4009 3.64924 19.2023 4.50638C19.0866 4.99725 19.0037 5.48962 18.9552 5.82287C18.938 5.90243 18.8551 5.98199 18.7722 5.98199H17.1361C17.0689 5.98199 17.0032 5.93395 17.0204 5.85439C17.0689 5.48962 17.1361 5.12484 17.2347 4.664C17.3004 4.23618 17.2675 4.15662 17.2018 4.06205V4.06355ZM17.0861 2.6675C17.4333 2.6675 17.5319 2.65099 17.5991 2.60295C17.7149 2.52339 17.7962 2.38079 17.8807 2.03252C17.9651 1.68426 17.9463 1.55517 17.8807 1.47711C17.8306 1.42907 17.7477 1.41256 17.4005 1.41256H16.5402C16.4573 1.41256 16.3744 1.47561 16.3588 1.55517L16.1101 2.5399C16.0945 2.61946 16.143 2.68251 16.2259 2.68251H17.0861V2.6675V2.6675ZM25.1724 0C25.834 0 26.1812 0.0795597 26.3799 0.300225C26.6114 0.570428 26.6927 0.984738 26.5113 1.90493C26.4956 1.98449 26.4127 2.04754 26.3298 2.04754H24.7923C24.7094 2.04754 24.6594 1.98449 24.6766 1.91994C24.7423 1.55517 24.6609 1.50713 24.6093 1.44408C24.578 1.39605 24.5108 1.38104 24.2293 1.38104H23.4363C23.1547 1.38104 23.0718 1.39605 23.0061 1.44408C22.906 1.52364 22.7246 1.79385 22.4274 2.99925C22.1303 4.20465 22.1787 4.49137 22.2288 4.57093C22.2616 4.61896 22.3445 4.63398 22.6261 4.63398H23.4691C23.7178 4.63398 23.8163 4.61896 23.882 4.57093C23.9649 4.50788 24.1307 4.34876 24.2293 3.92094L24.2449 3.8729H23.0562C22.9733 3.8729 22.9232 3.80836 22.9405 3.7303L23.1719 2.77708C23.1876 2.69752 23.2705 2.63448 23.3534 2.63448H26.2156C26.297 2.63448 26.347 2.69752 26.3298 2.77708L26.1812 3.36402C25.834 4.80961 25.4211 5.31549 24.991 5.65024C24.6766 5.90543 24.2293 6 23.6505 6H21.5844C20.9384 6 20.624 5.88892 20.4426 5.65024C20.1611 5.30048 20.0125 4.65049 20.427 2.99925C20.8415 1.34801 21.3185 0.683012 21.7658 0.349762C22.063 0.111083 22.4274 0 23.0718 0H25.1724ZM31.6211 6H26.6786C26.5942 6 26.5457 5.93545 26.5613 5.85589L27.9502 0.142607C27.9658 0.0630473 28.0503 0 28.1332 0H33.8875C33.986 0 34.036 0.0945709 33.9704 0.190643C33.7217 0.571929 32.7629 1.38104 31.6868 1.38104H29.6863C29.605 1.38104 29.5221 1.44408 29.5049 1.52364L29.3563 2.15862C29.3407 2.23818 29.3892 2.30123 29.4721 2.30123H32.167C32.2499 2.30123 32.2999 2.36427 32.2827 2.44383L32.0512 3.44358C32.0356 3.52314 31.9527 3.58619 31.8698 3.58619H29.1749C29.092 3.58619 29.0091 3.65074 28.9919 3.7303L28.8105 4.45984C28.7948 4.5394 28.8433 4.60245 28.9262 4.60245H31.9527C32.0356 4.60245 32.0841 4.6655 32.0684 4.74506L31.8025 5.84088C31.7869 5.93545 31.704 6 31.6211 6V6ZM7.85802 0.048036H1.07929C0.996392 0.048036 0.915059 0.111083 0.897854 0.190643L0.732062 0.761071C0.716421 0.825619 0.747703 0.873655 0.799317 0.905179C1.06365 0.984739 2.4854 1.01626 2.26955 1.77733L2.22107 1.98449L1.64236 4.06355L1.59231 4.2692C1.37803 5.03177 0.61632 5.0633 0.301939 5.14286C0.236248 5.15787 0.186197 5.22092 0.170556 5.28546L0.00319973 5.85439C-0.0124411 5.93395 0.0360454 5.9985 0.118942 5.9985H2.88111C2.96401 5.9985 3.04534 5.93395 3.06254 5.85439L3.55836 4.01401C3.574 3.93445 3.65846 3.8714 3.73979 3.8714H5.51033C5.59323 3.8714 5.67612 3.80686 5.69176 3.7288L5.95766 2.74406C5.9733 2.6645 5.92325 2.60145 5.84035 2.60145H4.07138C3.98848 2.60145 3.93843 2.5384 3.95563 2.45884L4.20432 1.57018C4.21996 1.49062 4.30286 1.42757 4.38576 1.42757H7.04782C7.13072 1.42757 7.21362 1.36302 7.22926 1.28346L7.94091 0.204153C7.97376 0.109582 7.94091 0.0465349 7.85802 0.0465349V0.048036Z" fill="#19B59B"/>
</svg>
